<svg xmlns="http://www.w3.org/2000/svg" viewBox="0 0 100 100" width="100" height="100">
  <rect width="100" height="100" rx="16" fill="#AD222F"/>
  <circle cx="50" cy="50" r="36" fill="none" stroke="#D1A43C" stroke-width="2.5"/>
  <!-- Crown -->
  <g fill="none" stroke="#D1A43C" stroke-width="1.6" stroke-linecap="round" stroke-linejoin="round">
    <!-- base -->
    <path d="M36 32 Q50 28 64 32"/>
    <path d="M37 31 Q38 21 44 28"/>
    <path d="M44 28 Q50 15 50 21"/>
    <path d="M50 21 Q50 15 56 28"/>
    <path d="M56 28 Q62 21 63 31"/>
    <!-- cross on top -->
    <circle cx="50" cy="19" r="1.2" fill="#D1A43C" stroke="none"/>
    <path d="M50 16 V22 M47.5 18.5 H52.5"/>
  </g>
  <!-- Shield -->
  <path d="M35 37 Q50 33 65 37 L65 58 Q50 77 35 58 Z" fill="none" stroke="#D1A43C" stroke-width="2"/>
  <!-- Magnifier -->
  <g>
    <circle cx="50" cy="56" r="12.5" fill="none" stroke="#D1A43C" stroke-width="2"/>
    <!-- bars -->
    <rect x="41.5" y="59" width="3.5" height="6" rx="0.5" fill="#D1A43C"/>
    <rect x="47" y="55" width="3.5" height="10" rx="0.5" fill="#D1A43C"/>
    <rect x="52.5" y="50" width="3.5" height="15" rx="0.5" fill="#D1A43C"/>
    <!-- handle -->
    <g transform="rotate(45 61 67)">
      <rect x="60" y="65" width="9" height="3.2" rx="1.5" fill="#D1A43C"/>
    </g>
  </g>
</svg>
